<svg width="130" height="27" viewBox="0 0 130 27" fill="none" xmlns="http://www.w3.org/2000/svg"><path d="M53.0273 5.39465C56.953 5.39465 59.2049 7.13174 59.2051 10.1603V20.0597H55.9883V18.4269C54.6647 19.6812 52.988 20.3419 51.1201 20.3419C48.0824 20.3418 46.1953 18.8281 46.1953 16.3927C46.1955 13.8846 47.7864 12.4431 51.5146 11.5743C51.7788 11.5106 52.0438 11.45 52.3047 11.3898C54.1894 10.954 55.8682 10.5255 55.8682 10.5255C55.8681 8.64362 54.9169 8.0744 53.1416 8.07434C51.0306 8.07434 49.8682 8.92505 49.8682 10.4708V10.6964H46.7363V10.4991C46.7364 7.2552 49.0293 5.39468 53.0273 5.39465ZM82.3848 5.39465C85.4704 5.39465 88.1057 7.08139 89.2627 9.79602L89.3174 9.92493L86.3242 11.1915L86.2676 11.0626C85.5579 9.43223 84.1429 8.49719 82.3848 8.49719C79.9742 8.49725 78.0859 10.4173 78.0859 12.8683C78.0861 15.3194 79.9994 17.2392 82.4414 17.2394C84.1775 17.2394 85.6296 16.2394 86.3242 14.5636L86.3789 14.4318L89.4043 15.6984L89.3477 15.8292C88.089 18.6969 85.5507 20.3419 82.3848 20.3419C78.1385 20.3419 74.8126 17.0589 74.8125 12.8683C74.8125 8.67752 78.1384 5.39471 82.3848 5.39465ZM97.585 5.39465C101.51 5.39479 103.762 7.13186 103.762 10.1603V20.0597H100.545V18.4269C99.2211 19.6809 97.5456 20.3419 95.6777 20.3419C92.6399 20.3419 90.7529 18.8282 90.7529 16.3927C90.7531 13.8846 92.3439 12.4431 96.0723 11.5743C96.3364 11.5106 96.6014 11.45 96.8623 11.3898C98.747 10.954 100.426 10.5255 100.426 10.5255C100.426 8.64352 99.4738 8.07434 97.6982 8.07434C95.5873 8.07437 94.4248 8.92508 94.4248 10.4708V10.6964H91.293V10.4991C91.2931 7.25518 93.5869 5.39465 97.585 5.39465ZM122.396 5.39465C126.717 5.39465 129.853 8.47821 129.854 12.7267V14.0529H118.1C118.55 16.1104 120.226 17.381 122.51 17.381C124.197 17.3809 125.59 16.5923 126.384 15.2081L129.296 16.4318C127.93 18.9529 125.52 20.3418 122.51 20.3419C118.073 20.3419 114.853 17.2222 114.853 12.9249C114.853 8.70241 118.165 5.39469 122.396 5.39465ZM39.5342 15.588L43.165 5.67688H46.6309L41.1426 20.0597H37.9004L32.3252 5.67688H35.8486L39.5342 15.588ZM67.8008 10.2316L71.1729 5.67688H75.1426L69.8574 12.754L75.46 20.0597H71.373L71.3311 20.004L67.7461 15.3048L64.2578 20.0597H60.1709L65.7158 12.755L60.4004 5.67688H64.457L67.8008 10.2316ZM109.141 7.48352C109.959 6.29944 111.258 5.67691 112.927 5.67688H114.454V8.83508H112.472C110.126 8.83508 109.17 10.0202 109.17 12.9249V20.0597H105.811V5.67688H109.141V7.48352ZM52.583 14.0519C50.3074 14.6236 49.4121 15.1679 49.4121 16.1681C49.4123 17.0332 50.1149 17.5499 51.291 17.5499C53.5139 17.5499 56.0166 16.3174 56.0166 13.8722V13.1749C56.0166 13.1749 53.6187 13.7921 52.583 14.0519ZM97.1406 14.0519C94.865 14.6237 93.9688 15.1679 93.9688 16.1681C93.9689 17.0331 94.6718 17.5498 95.8477 17.5499C98.0705 17.5499 100.573 16.3174 100.573 13.8722V13.1749C100.54 13.1835 98.1692 13.7939 97.1406 14.0519ZM122.396 8.32727C120.484 8.32735 118.882 9.45016 118.265 11.2042H126.429C125.946 9.37312 124.486 8.32727 122.396 8.32727Z" fill="#100211"></path><path fill-rule="evenodd" clip-rule="evenodd" d="M18.1997 8.59473V18.238H8.56934V21.997C8.56934 24.6291 10.6758 26.7683 13.2923 26.8175C15.9911 26.8682 18.1997 24.5731 18.1997 21.8708V18.238H21.8274C24.5262 18.238 26.8183 16.0265 26.768 13.3248C26.7191 10.7043 24.5825 8.59473 21.9538 8.59473H18.1997Z" fill="#4A008A"></path><path fill-rule="evenodd" clip-rule="evenodd" d="M8.5691 18.2378C8.5691 12.912 12.8806 8.59484 18.1995 8.59484V4.94785C18.1995 2.24521 15.9909 -0.0498617 13.2924 0.000823843C10.6753 0.0500273 8.5691 2.18919 8.5691 4.82099V8.59513H4.94109C2.24199 8.59513 -0.0500829 10.8066 0.000832326 13.509C0.0499715 16.1292 2.18664 18.2378 4.81499 18.2378H8.5691Z" fill="#FC6978"></path><path fill-rule="evenodd" clip-rule="evenodd" d="M8.56934 18.2378H18.1997V8.59485C12.8809 8.59485 8.56934 12.912 8.56934 18.2378Z" fill="#C92C99"></path></svg>